<?xml version="1.0" encoding="UTF-8" standalone="no"?>
<svg
   xmlns:dc="http://purl.org/dc/elements/1.1/"
   xmlns:cc="http://creativecommons.org/ns#"
   xmlns:rdf="http://www.w3.org/1999/02/22-rdf-syntax-ns#"
   xmlns:svg="http://www.w3.org/2000/svg"
   xmlns="http://www.w3.org/2000/svg"
   xmlns:sodipodi="http://sodipodi.sourceforge.net/DTD/sodipodi-0.dtd"
   xmlns:inkscape="http://www.inkscape.org/namespaces/inkscape"
   version="1.1"
   id="svg2"
   width="260"
   height="260"
   viewBox="0 0 260 260"
   sodipodi:docname="image20200516181401.svg"
   inkscape:version="1.0 (4035a4fb49, 2020-05-01)">
  <metadata
     id="metadata8">
    <rdf:RDF>
      <cc:Work
         rdf:about="">
        <dc:format>image/svg+xml</dc:format>
        <dc:type
           rdf:resource="http://purl.org/dc/dcmitype/StillImage" />
        <dc:title></dc:title>
      </cc:Work>
    </rdf:RDF>
  </metadata>
  <defs
     id="defs6" />
  <sodipodi:namedview
     inkscape:pagecheckerboard="true"
     inkscape:document-rotation="0"
     pagecolor="#ffffff"
     bordercolor="#666666"
     borderopacity="1"
     objecttolerance="10"
     gridtolerance="10"
     guidetolerance="10"
     inkscape:pageopacity="0"
     inkscape:pageshadow="2"
     inkscape:window-width="1920"
     inkscape:window-height="986"
     id="namedview4"
     showgrid="false"
     inkscape:zoom="2.1"
     inkscape:cx="27.504084"
     inkscape:cy="121.47275"
     inkscape:window-x="-11"
     inkscape:window-y="-11"
     inkscape:window-maximized="1"
     inkscape:current-layer="g10" />
  <g
     transform="translate(-21.383665,-16.70519)"
     inkscape:groupmode="layer"
     inkscape:label="Image"
     id="g10">
    <ellipse
       ry="124.9222"
       rx="125.42728"
       cy="147.01486"
       cx="151.52498"
       id="path37"
       style="fill:#ff7582;stroke-width:0.977002;fill-opacity:1" />
    <path
       transform="translate(21.383665,16.70519)"
       d="M 130.73633 12.791016 C 121.58674 12.736475 112.30435 13.703899 103.03711 15.753906 C 88.754299 18.913406 72.234598 26.318113 59.703125 35.177734 C 51.549798 40.942051 37.945329 54.554923 32.238281 62.660156 C 11.785025 91.708172 5.5335856 126.60235 14.697266 160.55664 C 21.547876 185.94028 38.062932 209.30626 60.328125 225.11328 C 68.338205 230.79999 83.170334 238.29241 92.371094 241.30078 C 101.7087 244.35389 115.68358 246.93394 124.53711 247.24023 L 127.03711 247.32617 L 127.03711 221.43555 L 127.03711 195.54297 L 113.93359 183.26953 C 106.72672 176.51825 99.344294 169.71186 97.527344 168.14453 L 94.222656 165.29492 L 73.355469 165.3457 L 52.488281 165.39648 L 43.677734 156.37695 L 34.867188 147.35547 L 31.732422 147.42578 C 28.202566 147.50528 26.775498 146.90553 24.371094 144.33398 C 23.034933 142.90492 22.714244 141.89422 22.753906 139.23633 C 22.795296 136.46297 23.136571 135.58804 24.841797 133.88281 C 27.103331 131.62128 31.175712 130.52138 33.757812 131.47656 C 37.777777 132.96364 40.38942 137.73385 39.142578 141.31055 C 38.488004 143.18826 38.742317 143.5409 46.583984 151.60352 L 54.703125 159.95117 L 71.871094 160.21484 C 81.31276 160.3596 89.037109 160.40206 89.037109 160.30859 C 89.037109 160.01545 40.911315 114.84628 36.804688 111.28516 C 36.49342 111.01524 36.227765 107.04176 36.214844 102.45508 C 36.201924 97.868398 36.00706 93.833771 35.78125 93.488281 C 35.555441 93.142791 34.678605 92.495741 33.833984 92.050781 C 31.418658 90.778351 29.707877 87.380459 29.705078 83.849609 C 29.702978 81.284549 30.083179 80.275574 31.765625 78.359375 C 38.566526 70.613575 50.919929 77.245838 47.724609 86.927734 C 46.993775 89.142184 43.676059 92.660156 42.318359 92.660156 C 41.975235 92.660156 41.716665 96.127391 41.734375 100.49414 L 41.767578 108.32617 L 54.568359 120.26562 L 67.371094 132.20508 L 67.566406 127.38281 L 67.763672 122.5625 L 64.984375 120.09375 C 62.564061 117.94591 62.165356 117.19783 61.912109 114.31055 C 61.551589 110.20022 63.155615 106.95741 66.412109 105.21094 C 74.549789 100.84665 83.759361 110.09098 79.019531 117.86523 C 78.279914 119.07835 76.783393 120.579 75.693359 121.19922 L 73.712891 122.32617 L 73.761719 130.32617 L 73.8125 138.32617 L 99.873047 162.66016 C 114.20634 176.0435 126.18093 187.09458 126.48438 187.2168 C 126.78784 187.33902 127.01374 177.43902 126.98633 165.2168 L 126.9375 142.99414 L 103.01758 120.66016 C 89.861948 108.37683 77.386922 96.778086 75.294922 94.884766 L 71.492188 91.441406 L 71.630859 82.443359 L 71.769531 73.445312 L 69.4375 71.666016 C 63.21062 66.916542 65.55415 57.706556 73.208984 56.84375 C 78.718886 56.222703 82.371094 59.630765 82.371094 65.396484 C 82.371094 67.799411 81.989185 68.561654 79.703125 70.736328 L 77.037109 73.273438 L 77.037109 81.189453 L 77.037109 89.107422 L 79.203125 91.003906 C 80.394785 92.047796 85.344785 96.635166 90.203125 101.19727 L 99.037109 109.49219 L 99.037109 101.18359 C 99.037109 92.965774 99.019041 92.866994 97.369141 92.115234 C 93.321211 90.270874 91.729362 83.266035 94.382812 78.972656 C 96.085333 76.217929 100.36328 74.385286 103.65039 75.001953 C 109.0906 76.022539 112.48406 81.283259 111.07617 86.511719 C 110.40079 89.019889 107.18983 92.660156 105.65234 92.660156 C 105.30055 92.660156 105.03711 97.453033 105.03711 103.8457 L 105.03711 115.03125 L 112.53711 122.0332 C 116.66211 125.88453 121.6121 130.4931 123.53711 132.27344 L 127.03711 135.50977 L 127.03711 91.736328 L 127.03711 47.964844 L 125.43945 47.238281 C 121.33915 45.370057 119.37768 39.441467 121.50195 35.339844 C 124.00163 30.513353 129.51108 28.722253 134.34766 31.162109 C 140.43604 34.233447 140.78811 43.491146 134.94727 46.941406 L 133.03711 48.068359 L 133.03711 78.822266 L 133.03711 109.57617 L 134.87109 107.90234 C 150.46233 93.673294 167.96168 76.845219 167.70703 76.326172 C 167.52714 75.959506 167.37754 73.953774 167.375 71.869141 C 167.371 68.587227 167.62983 67.808474 169.3125 66.052734 C 176.0378 59.035387 187.22103 64.693517 185.43555 74.210938 C 184.61467 78.586664 178.59031 82.195528 174.02148 81.048828 C 172.51719 80.671275 170.17578 82.645567 152.68555 99.027344 L 133.03711 117.43164 L 133.03711 141.73828 L 133.03711 166.04492 L 153.37109 146.95508 L 173.70312 127.86719 L 173.70312 117.95312 C 173.70312 108.63614 173.62069 107.99719 172.33398 107.30859 C 170.26277 106.20011 168.37584 102.62928 168.37305 99.816406 C 168.36805 94.463596 175.06067 90.460784 180.35156 92.652344 C 183.07 93.778354 185.03711 97.146711 185.03711 100.67578 C 185.03711 103.14687 184.67363 103.87916 182.34766 106.0918 L 179.65625 108.65234 L 179.84766 115.28711 L 180.03711 121.92383 L 194.70312 108.24414 C 202.76979 100.72033 209.60123 94.340036 209.88281 94.066406 C 210.16439 93.792786 210.46704 90.172091 210.55664 86.019531 L 210.7207 78.46875 L 208.27344 76.849609 C 200.34495 71.602789 204.80446 59.251577 214.2793 60.216797 C 223.31466 61.137237 226.08417 72.805649 218.31641 77.224609 L 216.37891 78.326172 L 216.375 86.998047 L 216.37109 95.667969 L 189.67383 120.66406 C 174.99057 134.4119 162.39057 146.15881 161.67383 146.76758 C 160.95709 147.37636 160.37109 148.05136 160.37109 148.26758 C 160.37109 148.48381 168.09919 148.66016 177.54492 148.66016 L 194.71875 148.66016 L 204.04492 138.86914 L 213.37109 129.08008 L 213.14453 125.61719 C 212.85883 121.22724 214.19483 118.54481 217.42969 117.00977 C 221.79226 114.93959 226.98669 116.77988 228.75977 121.02344 C 230.03489 124.07524 229.94564 125.92345 228.39844 128.46094 C 226.72876 131.19932 223.51822 132.86219 220.56641 132.51758 C 218.36809 132.26093 217.82606 132.70713 207.69922 143.12109 L 197.12695 153.99414 L 175.58203 153.99414 L 154.03711 153.99609 L 143.53711 163.76562 L 133.03711 173.5332 L 133.03711 188.89453 L 133.03711 204.25391 L 135.20312 202.24023 C 165.47105 174.10306 168.11246 171.49735 167.62695 170.25977 C 167.35354 169.56288 167.10975 167.72721 167.08398 166.18164 C 166.99168 160.64624 173.31501 156.20022 178.89844 157.87305 C 186.61331 160.18449 188.01738 170.03259 181.26367 174.45703 C 180.05073 175.25164 178.14865 175.66415 175.6582 175.67383 L 171.88867 175.68945 L 152.46289 193.87109 L 133.03711 212.05664 L 133.03711 229.76953 L 133.03711 247.48438 L 138.20312 247.02539 C 160.71368 245.02988 179.43186 238.59288 197.11914 226.76562 C 250.82596 190.85261 265.47382 119.47568 230.05273 66.287109 C 207.5296 32.466215 170.38453 13.027357 130.73633 12.791016 z "
       style="fill:#c56c86;stroke-width:0.336718;fill-opacity:1"
       id="path27" />
    <path
       style="fill:#355c7d;stroke-width:0.666667;fill-opacity:1"
       d="M 137.46846,273.29789 C 102.07718,269.56849 68.793164,250.81214 47.385639,222.53405 37.961014,210.08467 31.937397,198.33675 27.131506,183.0322 18.604712,155.87829 20.374527,124.64591 32.003858,97.048578 45.7438,64.442601 75.548758,37.292144 109.84902,26.1365 c 33.83696,-11.004962 69.23434,-8.460354 100.27526,7.20848 25.8623,13.054769 45.5531,32.873503 57.9772,58.353892 18.7246,38.401958 16.9213,82.608618 -4.8679,119.333328 -7.05526,11.8913 -21.76318,28.29999 -32.71924,36.50274 -26.59763,19.91353 -60.21732,29.2223 -93.04588,25.76295 z m 10.95205,-35.15731 v -25.89163 l -13.10339,-12.27504 c -7.20688,-6.75128 -14.59,-13.55741 -16.40695,-15.12474 l -3.30355,-2.8497 -20.866936,0.0515 -20.86694,0.0515 -8.8109,-9.0212 -8.810898,-9.0212 -3.134438,0.0706 c -3.529856,0.0795 -4.95826,-0.5203 -7.362664,-3.09185 -1.336161,-1.42906 -1.656856,-2.43998 -1.617194,-5.09787 0.04139,-2.77336 0.382714,-3.64858 2.08794,-5.35381 2.261534,-2.26153 6.333865,-3.35986 8.915966,-2.40468 4.019964,1.48708 6.632247,6.25716 5.385405,9.83386 -0.654574,1.87771 -0.399944,2.22988 7.441723,10.2925 l 8.119494,8.34826 17.166666,0.26328 c 9.441666,0.14476 17.166666,0.18677 17.166666,0.0933 0,-0.29314 -48.125983,-45.46149 -52.23261,-49.02261 -0.311268,-0.26992 -0.576515,-4.24351 -0.589436,-8.83019 -0.01292,-4.58668 -0.208247,-8.6221 -0.434057,-8.96759 -0.225809,-0.34549 -1.101616,-0.99222 -1.946237,-1.43718 -2.415326,-1.27243 -4.125701,-4.66987 -4.1285,-8.20071 -0.0021,-2.565065 0.376892,-3.575572 2.059338,-5.491771 6.800901,-7.7458 19.15503,-1.11194 15.95971,8.569951 -0.730834,2.21445 -4.048324,5.73194 -5.406024,5.73194 -0.343124,0 -0.601458,3.46659 -0.583748,7.83334 l 0.03177,7.83333 12.801563,11.93928 12.801567,11.93928 0.196867,-4.8219 0.196866,-4.8219 -2.780306,-2.46731 c -2.420314,-2.14784 -2.81798,-2.89676 -3.071227,-5.78404 -0.36052,-4.11033 1.242413,-7.35209 4.498907,-9.09856 8.13768,-4.36429 17.348987,4.87989 12.609157,12.65414 -0.739617,1.21312 -2.236597,2.71312 -3.326631,3.33334 l -1.981866,1.12767 0.0502,8 0.0502,8 26.060527,24.33333 c 14.3333,13.38334 26.30882,24.43334 26.61226,24.55556 0.30346,0.12222 0.52931,-9.77778 0.5019,-22 l -0.0498,-22.22219 -23.91923,-22.33334 C 111.24604,125.0822 98.770744,113.48312 96.678744,111.5898 l -3.803633,-3.4424 0.139173,-8.998395 0.139167,-8.998393 -2.332273,-1.778913 c -6.22688,-4.749474 -3.883314,-13.960447 3.77152,-14.823253 5.509902,-0.621047 9.161142,2.78816 9.161142,8.553879 0,2.402927 -0.3806,3.16506 -2.66666,5.339734 l -2.666669,2.53674 v 7.916506 7.916495 l 2.166669,1.89799 c 1.19166,1.04389 6.14166,5.6306 11,10.1927 l 8.83333,8.2947 v -8.30882 c 0,-8.21782 -0.0183,-8.31714 -1.6682,-9.0689 -4.04793,-1.84436 -5.63912,-8.847932 -2.98567,-13.141311 1.70252,-2.754727 5.97967,-4.587487 9.26678,-3.97082 5.44022,1.020586 8.8349,6.281446 7.42702,11.509901 -0.67538,2.50817 -3.88692,6.14829 -5.42442,6.14829 -0.35178,0 -0.61551,4.7925 -0.61551,11.18517 v 11.18516 l 7.5,7.00241 c 4.125,3.85133 9.075,8.45906 11,10.2394 l 3.5,3.23698 V 108.44247 64.670287 l -1.59691,-0.727602 c -4.10031,-1.868224 -6.06227,-7.795567 -3.938,-11.89719 2.49969,-4.826491 8.00898,-6.618775 12.84556,-4.178919 6.08838,3.071338 6.43982,12.329367 0.59899,15.779627 l -1.90964,1.128051 v 30.753705 30.753691 l 1.83333,-1.67315 c 15.59124,-14.22905 33.09094,-31.057248 32.83629,-31.576295 -0.17989,-0.366666 -0.32914,-2.372273 -0.33168,-4.456906 -0.004,-3.281914 0.25602,-4.06218 1.93869,-5.81792 6.7253,-7.017347 17.90778,-1.357827 16.1223,8.159593 -0.82088,4.375727 -6.84454,7.984546 -11.41337,6.837846 -1.50429,-0.377553 -3.84748,1.59674 -21.33771,17.978512 l -19.64785,18.40266 v 24.3068 24.3068 l 20.33333,-19.08874 20.33334,-19.08873 v -9.91317 c 0,-9.31698 -0.0823,-9.95724 -1.36901,-10.64584 -2.07121,-1.10848 -3.95904,-4.67783 -3.96183,-7.4907 -0.005,-5.35281 6.68813,-9.35609 11.97902,-7.16453 2.71844,1.12601 4.68515,4.49383 4.68515,8.0229 0,2.47109 -0.36407,3.2042 -2.69004,5.41684 l -2.69003,2.55897 0.19003,6.63632 0.19004,6.63631 14.66667,-13.67964 c 8.06666,-7.52381 14.89705,-13.90352 15.17863,-14.17715 0.28158,-0.27362 0.58527,-3.89504 0.67487,-8.0476 l 0.1629,-7.550105 -2.44733,-1.619573 c -7.92849,-5.24682 -3.46775,-17.59784 6.00709,-16.63262 9.03536,0.92044 11.80528,12.58788 4.03752,17.00684 l -1.93858,1.102833 -0.004,8.670585 -0.004,8.6706 -26.69684,24.99607 c -14.68326,13.74784 -27.28326,25.49416 -28,26.10293 -0.71674,0.60878 -1.30316,1.28378 -1.30316,1.5 0,0.21623 7.72833,0.39314 17.17406,0.39314 h 17.17408 l 9.32592,-9.79035 9.32594,-9.79035 -0.22536,-3.4626 c -0.2857,-4.38995 1.04899,-7.0714 4.28385,-8.60644 4.36257,-2.07018 9.55745,-0.23004 11.33053,4.01352 1.27512,3.0518 1.18516,4.8997 -0.36204,7.43719 -1.66968,2.73838 -4.87963,4.40103 -7.83144,4.05642 -2.19832,-0.25665 -2.74036,0.19005 -12.8672,10.60401 l -10.57263,10.87194 -21.54474,0.001 -21.54474,0.001 -10.5,9.76916 -10.5,9.76914 v 15.36004 15.36002 l 2.16667,-2.01414 c 30.26792,-28.13717 32.90965,-30.74275 32.42414,-31.98033 -0.2734,-0.69689 -0.51818,-2.53164 -0.54395,-4.07721 -0.0923,-5.5354 6.23072,-9.98311 11.81416,-8.31028 7.71487,2.31144 9.12018,12.15975 2.36648,16.58419 -1.21294,0.79461 -3.11578,1.20787 -5.60624,1.21755 l -3.77008,0.0147 -19.42559,18.18338 -19.42559,18.18453 v 17.71362 17.71361 l 5.16667,-0.45801 c 22.51056,-1.99551 41.2282,-8.4319 58.91548,-20.25915 C 272.20948,207.55867 286.85784,136.18101 251.43675,82.992445 223.71597,41.366729 173.84582,21.526034 124.42051,32.459406 110.1377,35.618906 93.618651,43.023338 81.087178,51.882959 72.933851,57.647276 59.329826,71.260306 53.622778,79.365539 33.169522,108.41355 26.916794,143.30735 36.080474,177.26164 c 6.85061,25.38364 23.366504,48.74898 45.631697,64.556 8.01008,5.68671 22.840909,13.17938 32.041669,16.18775 9.33762,3.05311 23.31315,5.63402 32.16667,5.94031 l 2.5,0.0865 z m 51.93921,-49.74361 c 6.4923,-3.3573 1.86623,-12.9179 -4.88555,-10.09682 -3.64849,1.52444 -4.82097,5.19732 -2.64899,8.29825 1.86518,2.66293 4.60042,3.31586 7.53454,1.79857 z M 55.753844,159.36553 c 0.740741,-0.74074 1.333334,-2.22222 1.333334,-3.33333 0,-1.11111 -0.592593,-2.59259 -1.333334,-3.33333 -2.885455,-2.88546 -8,-0.7544 -8,3.33333 0,2.56619 2.100478,4.66667 4.666667,4.66667 1.111111,0 2.592593,-0.5926 3.333333,-1.33334 z M 245.80512,144.08348 c 1.0718,-1.07179 1.94872,-2.44487 1.94872,-3.05128 0,-1.52146 -3.61222,-5 -5.19214,-5 -0.71209,0 -2.08517,0.62177 -3.05128,1.38172 -2.42926,1.91085 -2.42926,5.32571 0,7.23656 2.39121,1.88093 3.99086,1.73684 6.2947,-0.567 z M 94.660411,135.11421 c 3.10302,-1.29653 4.334193,-4.39598 2.922287,-7.35679 -0.618067,-1.29609 -1.91342,-2.5413 -3.196534,-3.07278 -1.91276,-0.79229 -2.42484,-0.74766 -4.516506,0.39364 -4.348634,2.3728 -4.25452,8.08362 0.164933,10.00797 2.546927,1.10901 2.045733,1.10598 4.62582,0.0279 z M 201.92051,119.88799 c 1.63505,-1.87353 1.45197,-4.29776 -0.4697,-6.21942 -2.59877,-2.59878 -6.46638,-1.87306 -7.72997,1.45043 -1.96501,5.16837 4.54622,8.95535 8.19967,4.76899 z M 63.048006,105.71912 c 5.177318,-2.67729 3.120632,-10.353581 -2.774008,-10.353581 -5.43341,0 -7.741701,5.547691 -3.904769,9.384611 2.173492,2.17349 3.872753,2.42002 6.678777,0.96897 z m 63.395954,-0.0324 c 3.62288,-1.87346 3.61918,-7.065302 -0.007,-9.500961 -2.75178,-1.848467 -4.97054,-1.567787 -7.18335,0.908699 -2.11997,2.372587 -1.95096,5.256002 0.44872,7.655672 2.18623,2.18624 3.87196,2.42044 6.74139,0.93659 z M 200.1058,93.902392 c 4.42754,-2.01732 4.38296,-8.070167 -0.075,-10.185613 -2.18731,-1.037947 -2.47472,-1.03162 -4.80176,0.105686 -4.45521,2.177434 -4.41639,8.39874 0.0637,10.20332 2.02209,0.814507 2.7983,0.794607 4.81309,-0.123393 z m 38.55788,-3.75548 c 2.10352,-1.886173 2.55172,-3.97634 1.38148,-6.442453 -1.90782,-4.020413 -6.91622,-4.630727 -9.6352,-1.174114 -4.2926,5.457154 3.07731,12.258134 8.25372,7.616567 z M 99.253844,84.567085 c 1.744096,-2.017053 1.486136,-4.853479 -0.589906,-6.486493 -2.87578,-2.262093 -5.684994,-1.72874 -7.2952,1.38506 -0.83862,1.62172 -0.861834,2.23182 -0.142007,3.73304 1.682713,3.509367 5.598653,4.176927 8.027113,1.368393 z M 155.45081,59.729176 c 2.40933,-2.409324 2.23598,-5.740571 -0.41479,-7.97104 -2.24052,-1.885276 -3.918,-2.144108 -6.15934,-0.950368 -2.19382,1.168436 -3.07816,2.645782 -3.10164,5.181471 -0.0462,4.989008 6.06469,7.351018 9.67577,3.739937 z"
       id="path20" />
  </g>
</svg>
